PathFileType	4	(X/Y/Z)	/Users/mathieubourgeois/Desktop/Analyse/Traitement/Sujet_07/Data/Transformed_Sujet_07_velo_80.trc
DataRate	CameraRate	NumFrames	NumMarkers	Units	OrigDataRate	OrigDataStartFrame	OrigNumFrames
120.000000	120.000000	5	36	mm	120.000000	1167	1868
Frame#	Time	RFHD			LFHD			RBHD			LBHD			C7			CLAV			RSHO			LSHO			STRN			T10			RBWT			LBWT			RFWT			LFWT			RKNI			LKNI			RKNE			LKNE			LANI			RANI			LANE			RANE			LTOE			RTOE			LHEE			RHEE			RHUM			LHUM			RRAD			LRAD			RWRA			RWRB			LWRA			LWRB			LCAR			RCAR			
		X1	Y1	Z1	X2	Y2	Z2	X3	Y3	Z3	X4	Y4	Z4	X5	Y5	Z5	X6	Y6	Z6	X7	Y7	Z7	X8	Y8	Z8	X9	Y9	Z9	X10	Y10	Z10	X11	Y11	Z11	X12	Y12	Z12	X13	Y13	Z13	X14	Y14	Z14	X15	Y15	Z15	X16	Y16	Z16	X17	Y17	Z17	X18	Y18	Z18	X19	Y19	Z19	X20	Y20	Z20	X21	Y21	Z21	X22	Y22	Z22	X23	Y23	Z23	X24	Y24	Z24	X25	Y25	Z25	X26	Y26	Z26	X27	Y27	Z27	X28	Y28	Z28	X29	Y29	Z29	X30	Y30	Z30	X31	Y31	Z31	X32	Y32	Z32	X33	Y33	Z33	X34	Y34	Z34	X35	Y35	Z35	X36	Y36	Z36	

1168	9.725	264.7686462402344	1351.923095703125	170.8393249511718	276.791259765625	1334.90380859375	39.42683792114253	213.4512023925781	1494.989990234375	164.9306945800781	222.9036254882812	1492.281860351562	20.15241813659662	61.82863616943359	1487.5859375	68.58264160156243	41.39345932006835	1352.076049804688	74.84686279296866	69.53537750244138	1431.822387695312	212.8786163330077	102.0280609130859	1459.067260742188	-54.74978256225594	-119.7580184936523	1281.085327148438	46.89820861816397	-185.3226165771484	1509.180053710938	36.83938980102528	-437.21533203125	1301.56201171875	96.17362976074205	-436.9999084472656	1292.763671875	-17.82718658447279	-278.7223815917969	1216.245849609375	149.0021514892577	-281.6751708984375	1205.4921875	-64.7850341796876	-45.01445388793947	836.4074096679688	127.9178390502929	-146.7969055175781	707.3612060546875	-27.66109657287604	-45.24880599975589	895.2548828125	233.9163665771484	-125.5144653320312	762.5933227539062	-133.5373535156251	-152.8328399658203	323.854736328125	-50.4971199035645	-318.0741882324219	574.7449951171875	115.9839935302734	-164.307144165039	312.4312438964844	-139.8998107910157	-346.1180419921875	580.0894165039062	202.2006683349609	27.24788856506349	233.6233978271484	-95.36344146728517	-212.6939544677735	410.7487182617188	186.4810028076171	-225.8559875488281	304.135009765625	-105.5811996459961	-404.1610412597656	595.1060791015625	157.9562225341796	75.2342834472656	1097.959594726562	247.2329101562499	102.5076675415039	1127.0166015625	-140.7745971679688	120.1400604248046	1123.910766601562	292.1985168457031	166.1957550048828	1143.051147460938	-155.4570465087891	319.8945922851562	937.0697631835938	253.8612365722656	281.3074340820312	900.76708984375	307.6960754394531	317.8675231933594	929.8803100585938	-103.0218658447266	277.0986938476562	888.2216796875	-154.5194244384766	371.6876831054688	915.25830078125	-193.1376190185547	371.6539306640624	925.587158203125	341.7795104980469	
1169	9.733333333333333	265.0110168457031	1352.07666015625	171.9498443603515	277.2083129882812	1334.97607421875	40.6125984191894	213.6650390625	1495.121215820312	165.9451293945312	223.4095153808594	1492.319213867188	21.20352935791009	62.28339385986327	1487.7099609375	69.30532073974602	41.87318420410156	1352.193603515625	75.67086791992179	69.66658020019528	1431.875732421875	213.8119354248046	102.6882934570312	1459.246948242188	-53.91841888427742	-119.1431045532227	1281.120239257812	47.01897811889639	-184.7632904052734	1509.210083007812	36.25885772705067	-436.8355712890625	1301.900756835938	95.11840820312486	-436.2100219726562	1292.50537109375	-18.85505294799818	-278.444580078125	1216.900146484375	148.6481628417968	-280.9254760742188	1204.903930664062	-65.08587646484385	-37.30530548095705	846.7992553710938	128.5997467041015	-155.8352661132812	700.4341430664062	-27.30282020568854	-40.25563430786136	903.5587158203125	233.9529724121093	-133.7600555419922	755.61572265625	-133.084197998047	-161.0848541259766	316.8403930664062	-50.35092544555668	-311.4720458984375	582.0416870117188	116.1359786987304	-173.3590240478515	305.435302734375	-139.5455932617188	-339.481201171875	587.1968383789062	202.4503326416015	17.98533058166505	224.9921569824219	-96.2394485473633	-202.8390655517578	420.452392578125	186.9145202636718	-234.39892578125	297.6787719726562	-105.0848464965821	-397.9542541503906	601.324951171875	158.3233337402343	75.31219482421872	1097.970825195312	247.622573852539	103.0925979614258	1127.244262695312	-141.0133514404297	120.1707229614257	1123.846557617188	292.6314086914062	166.8744812011719	1143.156494140625	-155.0289001464844	319.9734497070312	937.0614013671875	253.9213562011718	281.4208068847656	900.7427978515625	307.7887878417969	318.0697326660156	929.76904296875	-102.8935775756836	277.2461547851562	888.1790771484375	-154.4456176757813	371.7804260253906	915.26953125	-193.0834503173828	371.7675781249999	925.5381469726562	341.8403930664062	
1170	9.741666666666667	265.2080688476562	1352.22216796875	173.0751800537109	277.6659545898438	1335.059814453125	41.77571868896479	213.956787109375	1495.278442382812	166.8979187011718	223.9197235107422	1492.416015625	22.17940521240228	62.73038482666015	1487.821533203125	70.01402282714837	42.29834365844726	1352.356567382812	76.59708404541007	69.80384826660153	1431.90380859375	214.6696014404296	103.3679962158203	1459.447387695312	-53.07204818725594	-118.5712814331055	1281.173950195312	47.3333854675292	-184.1602325439453	1509.240966796875	35.68684768676746	-436.4208984375	1302.196533203125	94.14580535888658	-435.4770202636719	1292.253295898438	-19.79970741271986	-278.1259155273438	1217.573120117188	148.3770446777343	-280.3243408203125	1204.302368164062	-65.24454498291026	-30.98334121704103	853.4777221679688	128.2689666748046	-165.3010101318359	694.1829223632812	-27.24189376831061	-35.49847793579104	911.6444702148438	234.0016021728515	-141.7594146728515	749.1784057617188	-132.7022552490235	-169.9886474609375	310.4276428222656	-50.15483856201176	-304.78369140625	588.7108764648438	116.4818801879882	-182.6961669921875	299.1297912597656	-139.3121643066407	-332.5965576171875	593.5621337890625	202.9229888916015	8.243427276611341	216.9449768066406	-97.04415893554689	-193.1279449462891	429.7998657226562	187.6984252929687	-243.5628662109375	291.8163757324219	-104.5199813842774	-391.6175842285156	606.649658203125	158.9357604980468	75.37912750244138	1097.980590820312	248.0293273925781	103.5866775512695	1127.457153320312	-141.0570068359376	120.2083663940429	1123.781127929688	293.0351867675781	167.463607788086	1143.329711914062	-154.8536529541016	320.0099792480468	937.0551147460938	254.0196838378906	281.5222167968749	900.6717529296875	307.8924255371094	318.2630310058594	929.665283203125	-102.7451095581055	277.3949890136719	888.1524047851562	-154.3651428222657	371.8864440917969	915.266357421875	-193.0092468261719	371.8992919921874	925.4639892578125	341.8956909179688	
1171	9.75	265.5188598632812	1352.335327148438	174.1826934814453	278.1517028808594	1335.142578125	42.82664489746089	214.2616577148437	1495.443115234375	167.8329162597656	224.410888671875	1492.501953125	23.08335685729974	63.17498016357421	1487.948486328125	70.73413085937493	42.7338523864746	1352.48095703125	77.3948440551757	69.96188354492185	1431.953979492188	215.442642211914	104.0239486694336	1459.605590820312	-52.25642776489266	-117.9707946777344	1281.206787109375	47.45371627807608	-183.5864562988281	1509.24951171875	35.16115570068348	-436.0143127441406	1302.521118164062	93.26992034912095	-434.789306640625	1292.036743164062	-20.64275932312025	-277.732421875	1218.248657226562	148.0741119384764	-279.6732482910156	1203.862182617188	-65.48807525634776	-26.61569976806642	862.2429809570312	127.534065246582	-173.9024047851562	688.4376220703125	-27.02367591857917	-31.11161231994632	919.4655151367188	234.0191345214843	-149.510513305664	743.31494140625	-132.3604583740235	-179.1051330566406	304.7095336914062	-49.96350860595707	-299.3589782714844	594.8460693359375	116.5441360473632	-192.3814544677734	293.4346313476562	-139.071029663086	-325.48291015625	599.120849609375	203.5289611816406	-1.97158086299895	209.5143280029297	-97.85918426513673	-182.232894897461	438.7541809082031	188.1342010498046	-253.088134765625	286.6217651367188	-103.9710083007813	-385.105712890625	611.065673828125	159.8356475830077	75.44519042968747	1097.957885742188	248.3726501464843	104.0927505493164	1127.654541015625	-141.1692657470704	120.2430801391601	1123.701049804688	293.4426574707031	168.0833740234375	1143.470825195312	-154.6983032226563	320.0392456054687	937.0376586914062	254.1230163574218	281.5962524414062	900.5926513671875	308.0260009765625	318.4396362304688	929.5526123046875	-102.5675430297852	277.5115966796875	888.10791015625	-154.2783203125	371.9895629882812	915.2774658203125	-192.9244384765625	372.0065002441406	925.3688354492188	341.9897766113281	
1172	9.758333333333333	265.8104553222656	1352.475463867188	175.2031707763671	278.6079711914062	1335.241455078125	43.83821105957026	214.599609375	1495.58740234375	168.6665496826171	224.9165191650391	1492.560791015625	23.96252632141107	63.64331054687499	1488.060302734375	71.31531524658196	43.22733306884765	1352.55224609375	78.07122039794913	70.10308837890622	1432.010986328125	216.2260131835937	104.7515563964844	1459.79296875	-51.50109100341805	-117.3600845336914	1281.227416992188	47.54626083374014	-183.0020904541016	1509.26806640625	34.65188598632801	-435.5372619628906	1302.884155273438	92.46353149414048	-434.166748046875	1291.871948242188	-21.41727447509779	-277.3358154296875	1218.9208984375	147.7373046874999	-279.2363891601562	1203.4189453125	-65.67644500732432	-21.60303497314455	868.9880981445312	127.3820877075195	-182.8893585205078	683.6297607421875	-27.24324989318854	-27.00305366516116	926.8544921875	233.9849548339843	-156.9514770507812	738.0045776367188	-132.0888824462891	-188.9464569091797	299.5343017578125	-49.80218124389653	-291.0857238769531	599.63623046875	117.4672927856444	-202.5151672363281	288.4831848144531	-138.8479309082032	-318.2049865722656	603.7413330078125	204.2876434326171	-12.60006713867186	202.7243499755859	-98.62350463867189	-171.0957641601563	447.2554321289062	188.6678009033203	-263.0360717773438	282.1420288085938	-103.495849609375	-378.3627319335938	614.4615478515625	160.8913116455077	75.5046691894531	1097.963989257812	248.6863250732421	104.5712585449219	1127.869995117188	-141.3311462402344	120.273452758789	1123.648315429688	293.8217163085937	168.6141967773438	1143.574829101562	-154.6278991699219	320.0832824707031	937.0089111328125	254.254409790039	281.6602172851562	900.5332641601562	308.1618957519531	318.5393676757812	929.0511474609375	-102.5149154663086	277.6433410644531	888.0435791015625	-154.1374206542969	372.0889282226562	915.2724609375	-192.7953338623047	372.0914611816406	925.2916259765625	342.0782775878906	
